<?xml version="1.0" encoding="UTF-8" standalone="no"?>
<!-- Generator: Adobe Illustrator 28.3.0, SVG Export Plug-In . SVG Version: 6.00 Build 0)  -->

<svg
   version="1.1"
   id="am_copy"
   x="0px"
   y="0px"
   viewBox="0 0 30 30"
   style="enable-background:new 0 0 30 30;"
   xml:space="preserve"
   sodipodi:docname="amazon.svgz"
   xmlns:inkscape="http://www.inkscape.org/namespaces/inkscape"
   xmlns:sodipodi="http://sodipodi.sourceforge.net/DTD/sodipodi-0.dtd"
   xmlns="http://www.w3.org/2000/svg"
   xmlns:svg="http://www.w3.org/2000/svg"><defs
   id="defs43" /><sodipodi:namedview
   id="namedview41"
   pagecolor="#ffffff"
   bordercolor="#000000"
   borderopacity="0.25"
   inkscape:showpageshadow="2"
   inkscape:pageopacity="0.0"
   inkscape:pagecheckerboard="0"
   inkscape:deskcolor="#d1d1d1" />
<style
   type="text/css"
   id="style2">
	.st0{fill:#E0E0E0;}
</style>
<g
   id="g6">
	<path
   class="st0"
   d="M15,29.34C7.09,29.34,0.66,22.91,0.66,15C0.66,7.09,7.09,0.66,15,0.66c7.91,0,14.34,6.43,14.34,14.34   C29.34,22.91,22.91,29.34,15,29.34z M15,1.66C7.64,1.66,1.66,7.64,1.66,15S7.64,28.34,15,28.34S28.34,22.36,28.34,15   S22.36,1.66,15,1.66z"
   id="path4" />
</g>
<path
   d="M-540.39,270.2c-1.56-1.82-2.52-2.94-3.48-4.06c0.87-0.55,1.87-1.69,2.59-1.53c1.2,0.26,2.23,1.35,3.33,2.08  C-538.58,267.63-539.23,268.55-540.39,270.2z"
   id="path8" />
<g
   id="g38">
	<g
   id="g12">
		<path
   class="st0"
   d="M21.56,16.94c-0.12-0.18-0.25-0.35-0.38-0.53c-0.42-0.57-0.62-1.2-0.62-1.9c0.01-0.53,0-1.06,0-1.59    c-0.01-1.37,0.01-2.74-0.05-4.1c-0.08-1.94-1.02-3.11-2.89-3.66c-1.61-0.47-3.23-0.41-4.81,0.14c-1.56,0.55-2.58,1.63-2.96,3.27    C9.73,9.09,9.86,9.26,10.4,9.31c0.69,0.07,1.38,0.15,2.07,0.22c0.37,0.04,0.56-0.06,0.64-0.43c0.21-1.01,1.03-1.56,2.07-1.56    c0.67,0,1.25,0.21,1.56,0.85c0.31,0.64,0.19,1.33,0.21,2.01c-0.29,0.03-0.54,0.06-0.79,0.09c-1.16,0.12-2.32,0.23-3.44,0.59    c-1.04,0.33-1.94,0.87-2.56,1.79c-0.92,1.38-1.01,2.88-0.46,4.42c0.36,1.01,1.1,1.67,2.12,2.01c0.6,0.2,1.22,0.23,1.84,0.21    c1.14-0.04,2.17-0.39,3.04-1.15c0.26-0.23,0.51-0.46,0.79-0.71c0.08,0.11,0.14,0.22,0.21,0.3c0.36,0.42,0.71,0.85,1.09,1.24    c0.3,0.31,0.54,0.29,0.88,0c0.59-0.51,1.18-1.03,1.78-1.55C21.7,17.42,21.74,17.22,21.56,16.94z M16.8,14.99    c-0.15,0.54-0.41,1.03-0.83,1.41c-0.35,0.32-0.75,0.51-1.23,0.52c-0.73,0.01-1.24-0.35-1.48-1.04c-0.4-1.15,0.04-2.39,1.05-2.92    c0.23-0.12,0.48-0.21,0.73-0.28c0.61-0.18,1.25-0.22,1.92-0.21C16.95,13.33,17.03,14.17,16.8,14.99z"
   id="path10" />
	</g>
	<g
   id="g16">
		<path
   class="st0"
   d="M15.07,24.33c-0.78-0.12-1.64-0.24-2.49-0.4c-0.4-0.08-0.77-0.26-1.16-0.4c-0.11-0.04-0.23-0.06-0.34-0.11    c-1.8-0.77-3.36-1.87-4.67-3.34c-0.02-0.02-0.05-0.04-0.06-0.07c-0.02-0.09-0.02-0.19-0.03-0.28c0.09,0.01,0.19,0,0.26,0.05    c0.6,0.37,1.18,0.75,1.79,1.11c0.32,0.19,0.68,0.33,1.01,0.51c0.12,0.06,0.21,0.16,0.32,0.24c0.02,0.02,0.05,0.04,0.07,0.04    c0.2,0.04,0.4,0.07,0.6,0.13c0.06,0.02,0.12,0.09,0.13,0.15c0.04,0.13,0.03,0.27,0.07,0.4c0.02,0.06,0.06,0.15,0.11,0.17    c0.33,0.14,0.63,0.31,0.9,0.55c0.06,0.05,0.19,0.04,0.29,0.05c0.11,0.02,0.23,0.01,0.33,0.05c0.15,0.06,0.3,0.15,0.43,0.24    c0.29,0.21,0.62,0.09,0.93,0.15c0.17,0.03,0.33-0.01,0.45,0.17c0.09,0.12,0.22,0.05,0.31-0.05c0.08-0.1,0.14-0.06,0.25-0.03    c0.23,0.06,0.5,0.08,0.72,0.01c0.17-0.05,0.31-0.09,0.46-0.03c0.31,0.13,0.6,0.17,0.92-0.03c0.12-0.08,0.31-0.05,0.47-0.07    c0.24-0.03,0.46-0.2,0.73-0.08c0.06,0.03,0.17,0,0.23-0.04c0.13-0.09,0.25-0.12,0.4-0.07c0.04,0.01,0.14-0.01,0.15-0.05    c0.12-0.24,0.35-0.23,0.55-0.28c0.08-0.02,0.18-0.02,0.23-0.07c0.13-0.12,0.24-0.22,0.43-0.13c0.03,0.01,0.09-0.02,0.12-0.04    c0.33-0.2,0.65-0.4,0.97-0.62c0.11-0.08,0.19-0.08,0.3,0c0.05,0.03,0.14,0.04,0.19,0.02c0.04-0.02,0.05-0.1,0.08-0.15    c0.04-0.08,0.07-0.19,0.13-0.25c0.09-0.08,0.11-0.13,0.03-0.24c-0.04-0.05-0.05-0.18-0.01-0.22c0.08-0.07,0.17-0.17,0.31-0.05    c0.25,0.21,0.26,0.21,0.4-0.09c0.01-0.03,0.03-0.06,0.05-0.07c0.1-0.05,0.09-0.28,0.28-0.17c0.1,0.06,0.1,0.32-0.02,0.44    c-0.11,0.12-0.23,0.23-0.36,0.33c-0.64,0.5-1.3,0.98-2.04,1.33c-1.05,0.5-2.13,0.9-3.29,1.05C16.39,24.21,15.78,24.26,15.07,24.33    z"
   id="path14" />
	</g>
	<g
   id="g20">
		<path
   class="st0"
   d="M22.44,19.57c0.59-0.06,1.16-0.09,1.73,0.07c0.23,0.07,0.25,0.26,0.23,0.43c-0.06,0.97-0.38,1.83-1.04,2.56    c-0.03,0.03-0.06,0.07-0.1,0.09c-0.07,0.03-0.14,0.05-0.21,0.07c0-0.07,0-0.14,0.02-0.21c0.18-0.59,0.38-1.18,0.55-1.77    c0.08-0.27,0.02-0.52-0.29-0.65c-0.04-0.02-0.09-0.06-0.11-0.1c-0.12-0.32-0.38-0.42-0.69-0.43c-0.02,0-0.04-0.01-0.06-0.02    C22.46,19.62,22.45,19.61,22.44,19.57z"
   id="path18" />
	</g>
	<g
   id="g24">
		<path
   class="st0"
   d="M21.19,20.1c0.09-0.06,0.17-0.13,0.26-0.17c0.05-0.02,0.13-0.01,0.18,0.01c0.03,0.02,0.06,0.1,0.05,0.13    c-0.03,0.05-0.09,0.1-0.14,0.1C21.42,20.18,21.27,20.28,21.19,20.1z"
   id="path22" />
	</g>
	<g
   id="g28">
		<path
   class="st0"
   d="M19.48,22.19c0.16,0,0.32,0,0.48,0c0.01,0.03,0.01,0.05,0.02,0.08c-0.12,0.03-0.24,0.08-0.37,0.09    c-0.05,0-0.11-0.08-0.17-0.12C19.45,22.22,19.46,22.21,19.48,22.19z"
   id="path26" />
	</g>
	<g
   id="g32">
		<path
   class="st0"
   d="M6.33,19.74c0,0-0.26,0.37,1.25,1.5c0,0,4,3.96,9.97,2.8c0,0,3.69-0.85,5.16-2.63c0,0,0.6-1.34-1.27-0.44    c0,0-5.71,4.24-13.12-0.51C8.32,20.47,6.81,19.67,6.33,19.74z"
   id="path30" />
	</g>
	<g
   id="g36">
		<path
   class="st0"
   d="M21.26,20.08c-0.08-0.36,1.33-0.64,1.52-0.67c0.78-0.11,1.65-0.19,1.72,0.81c0.04,0.64-0.27,1.4-0.62,1.93    c-0.17,0.26-0.38,0.49-0.65,0.64c-0.04,0.02-0.1,0.04-0.14,0.01c-0.04-0.03-0.04-0.09-0.02-0.14c0.14-0.64,0.4-1.25,0.38-1.92    c0-0.1-0.01-0.21-0.06-0.31c-0.25-0.49-1.37-0.24-1.81-0.23c-0.09,0-0.19,0-0.27-0.05C21.28,20.14,21.26,20.11,21.26,20.08z"
   id="path34" />
	</g>
</g>
</svg>
