<?xml version="1.0" encoding="UTF-8" standalone="no"?>
<!-- Generator: Adobe Illustrator 28.3.0, SVG Export Plug-In . SVG Version: 6.00 Build 0)  -->

<svg
   version="1.1"
   id="tk_copy"
   x="0px"
   y="0px"
   viewBox="0 0 30 30"
   style="enable-background:new 0 0 30 30;"
   xml:space="preserve"
   sodipodi:docname="tk.svgz"
   xmlns:inkscape="http://www.inkscape.org/namespaces/inkscape"
   xmlns:sodipodi="http://sodipodi.sourceforge.net/DTD/sodipodi-0.dtd"
   xmlns="http://www.w3.org/2000/svg"
   xmlns:svg="http://www.w3.org/2000/svg"><defs
   id="defs17" /><sodipodi:namedview
   id="namedview15"
   pagecolor="#ffffff"
   bordercolor="#000000"
   borderopacity="0.25"
   inkscape:showpageshadow="2"
   inkscape:pageopacity="0.0"
   inkscape:pagecheckerboard="0"
   inkscape:deskcolor="#d1d1d1" />
<style
   type="text/css"
   id="style2">
	.st0{fill:#E0E0E0;}
</style>
<g
   id="g6">
	<path
   class="st0"
   d="M15,29.34C7.09,29.34,0.66,22.91,0.66,15S7.09,0.66,15,0.66S29.34,7.09,29.34,15S22.91,29.34,15,29.34z    M15,1.66C7.64,1.66,1.66,7.64,1.66,15S7.64,28.34,15,28.34S28.34,22.36,28.34,15S22.36,1.66,15,1.66z"
   id="path4" />
</g>
<g
   id="g12">
	<g
   id="g10">
		<path
   class="st0"
   d="M22.98,10.25v3.17c-0.56-0.05-1.28-0.18-2.07-0.47c-1.04-0.38-1.82-0.9-2.32-1.31v6.42l-0.01-0.02    c0.01,0.13,0.01,0.26,0.01,0.39c0,3.19-2.59,5.78-5.78,5.78s-5.78-2.59-5.78-5.78s2.59-5.78,5.78-5.78c0.31,0,0.62,0.03,0.92,0.07    v3.13c-0.29-0.1-0.6-0.16-0.92-0.16c-1.51,0-2.74,1.23-2.74,2.74s1.23,2.74,2.74,2.74s2.74-1.23,2.74-2.74    c0-0.06,0-0.11-0.01-0.17V5.79h3.17c0.01,0.27,0.02,0.54,0.03,0.81c0.02,0.53,0.21,1.04,0.54,1.45c0.39,0.49,0.95,1.06,1.75,1.51    C21.78,9.98,22.48,10.17,22.98,10.25z"
   id="path8" />
	</g>
</g>
</svg>
