<svg xmlns="http://www.w3.org/2000/svg" xmlns:xlink="http://www.w3.org/1999/xlink" xmlns:svgjs="http://svgjs.com/svgjs" width="512" height="512" x="0" y="0" viewBox="0 0 128 128" style="enable-background:new 0 0 512 512" xml:space="preserve"><g><path d="m14.227 89.655c-.736-1.442-1.417-2.931-2.026-4.426a1.5 1.5 0 1 0 -2.779 1.13c.64 1.575 1.358 3.142 2.133 4.66a1.5 1.5 0 0 0 2.672-1.364z" fill="" data-original=""></path><path d="m10.559 80.646c-.482-1.547-.9-3.131-1.247-4.708a1.5 1.5 0 0 0 -2.93.643c.364 1.66.805 3.327 1.311 4.956a1.5 1.5 0 0 0 2.866-.891z" fill="" data-original=""></path><path d="m7.178 72.826a1.5 1.5 0 0 0 1.291-1.683c-.212-1.6-.358-3.23-.436-4.853a1.481 1.481 0 0 0 -1.569-1.427 1.5 1.5 0 0 0 -1.427 1.57c.081 1.707.235 3.423.457 5.1a1.5 1.5 0 0 0 1.684 1.291z" fill="" data-original=""></path><path d="m33.4 111.312c-1.341-.906-2.66-1.878-3.921-2.894a1.5 1.5 0 1 0 -1.88 2.338c1.326 1.066 2.712 2.091 4.124 3.042a1.5 1.5 0 0 0 2.082-.4 1.5 1.5 0 0 0 -.405-2.086z" fill="" data-original=""></path><path d="m16.621 93.9a1.5 1.5 0 1 0 -2.547 1.584c.9 1.443 1.868 2.867 2.886 4.233a1.5 1.5 0 1 0 2.406-1.793c-.966-1.304-1.891-2.657-2.745-4.024z" fill="" data-original=""></path><path d="m22.437 101.7a1.5 1.5 0 1 0 -2.246 1.989c1.131 1.276 2.328 2.517 3.557 3.69a1.5 1.5 0 1 0 2.07-2.17c-1.169-1.118-2.306-2.299-3.381-3.509z" fill="" data-original=""></path><path d="m65.584 2.9a60.737 60.737 0 0 0 -49.584 25.744 1.5 1.5 0 0 0 2.453 1.728 57.6 57.6 0 1 1 23.447 85.682c-1.47-.664-2.934-1.4-4.35-2.192a1.5 1.5 0 1 0 -1.463 2.619c1.491.832 3.031 1.609 4.579 2.307a60.621 60.621 0 1 0 24.918-115.888z" fill="" data-original=""></path><path d="m16.451 34.611a4.177 4.177 0 0 1 -4.115-3.506l-1.248-7.749a1.5 1.5 0 0 1 2.961-.476l1.251 7.748a1.177 1.177 0 0 0 1.342.969l7.748-1.248a1.5 1.5 0 0 1 .476 2.961l-7.748 1.248a4.156 4.156 0 0 1 -.667.053z" fill="" data-original=""></path><path d="m104.324 37.894-36.447-19.207a4.8 4.8 0 0 0 -4.487 0l-36.449 19.207a4.8 4.8 0 0 0 -2.569 4.257v42.725a4.8 4.8 0 0 0 2.569 4.258l36.449 19.207a4.812 4.812 0 0 0 4.487 0l36.447-19.207a4.8 4.8 0 0 0 2.57-4.258v-42.725a4.8 4.8 0 0 0 -2.57-4.257zm-52.91 12.306a4.789 4.789 0 0 0 -2.64 4.294v17.14a.135.135 0 0 1 -.1.145.132.132 0 0 1 -.171-.037l-3.278-3.422a3.179 3.179 0 0 0 -2.946-.9l-2.139.461a.157.157 0 0 1 -.189-.153v-19.216a1.8 1.8 0 0 1 .994-1.617l37.76-19.111 8.328 4.389zm13.374-28.86a1.815 1.815 0 0 1 1.691 0l8.972 4.728-35.858 18.15a4.779 4.779 0 0 0 -1.007.688l-9.445-4.781zm-.655 84-35.793-18.861a1.806 1.806 0 0 1 -.968-1.6v-42.287l9.7 4.908a4.787 4.787 0 0 0 -.118 1.012v19.213a3.157 3.157 0 0 0 3.82 3.086l2.139-.46a.144.144 0 0 1 .147.045l3.28 3.422a3.156 3.156 0 0 0 5.435-2.183v-16.692l11.687 5.914a4.633 4.633 0 0 0 .672.272zm.683-47.159-11.263-5.7 36.734-18.593 11.839 6.238-35.673 18.056a1.822 1.822 0 0 1 -1.637 0zm39.078 26.694a1.808 1.808 0 0 1 -.968 1.6l-35.793 18.867v-44.212a4.731 4.731 0 0 0 .676-.273l36.085-18.264z" fill="" data-original=""></path></g></svg>